<svg width="80" height="80" viewBox="0 0 80 80" fill="none" xmlns="http://www.w3.org/2000/svg"><path fill-rule="evenodd" clip-rule="evenodd" d="M40 43.333c9.208 0 16.667-7.458 16.667-16.666C56.667 17.458 49.208 10 40 10c-9.208 0-16.667 7.458-16.667 16.667 0 9.208 7.459 16.666 16.667 16.666zm13.333-16.666C53.333 34.034 47.367 40 40 40s-13.333-5.966-13.333-13.333c0-7.368 5.966-13.334 13.333-13.334S53.333 19.3 53.333 26.667zm-4.941 19.79l-5.059 14.451V60l-.957-6.703a1.667 1.667 0 001.273-1.226l.833-3.334a1.667 1.667 0 00-1.617-2.07h-5.73a1.667 1.667 0 00-1.617 2.07l.833 3.334a1.667 1.667 0 001.273 1.227l-.936 6.553-5.09-13.413-.034-.07a2.465 2.465 0 00-2.792-1.32c-.57.138-1.195.285-1.857.44-1.562.365-3.323.777-4.993 1.242-2.356.656-4.795 1.483-6.49 2.596C12.31 51.376 10 54.088 10 57.5V70h60V57.5c0-3.412-2.31-6.124-5.432-8.174-1.695-1.113-4.134-1.94-6.49-2.596-1.67-.465-3.43-.877-4.993-1.243a207.58 207.58 0 01-1.857-.44 2.465 2.465 0 00-2.792 1.32l-.044.09zm4.014 2.295c-.404-.094-.801-.187-1.188-.279l-6.369 18.194h21.818V57.5c0-1.744-1.174-3.579-3.928-5.388-1.224-.803-3.218-1.52-5.554-2.17-1.603-.447-3.242-.83-4.777-1.19h-.002zm-23.602-.284l6.905 18.198H13.332V57.5c0-1.744 1.174-3.579 3.929-5.388 1.223-.803 3.217-1.52 5.553-2.17 1.603-.447 3.242-.83 4.777-1.19.412-.096.817-.19 1.212-.284z" fill="#758AD6"/></svg>