<svg width="80" height="80" viewBox="0 0 80 80" fill="none" xmlns="http://www.w3.org/2000/svg"><path fill-rule="evenodd" clip-rule="evenodd" d="M56.667 26.667c0 9.204-7.462 16.666-16.667 16.666-9.205 0-16.667-7.462-16.667-16.666C23.333 17.462 30.795 10 40 10c9.205 0 16.667 7.462 16.667 16.667zm-3.334 0C53.333 34.03 47.363 40 40 40c-7.364 0-13.333-5.97-13.333-13.333 0-7.364 5.97-13.334 13.333-13.334 7.364 0 13.333 5.97 13.333 13.334zM29.857 48.092l.018.036c.043.085.084.167.125.245h19.582c.38-.723 1.247-1.876 2.085-1.685a37.143 37.143 0 015.602 1.76l.055-.027.018.037.013.026C64.213 51.269 70 55.994 70 60.95V70H10v-9.05c0-6.293 9.326-12.211 18.333-14.263.736-.167 1.171.701 1.524 1.405zm24.65 2.879c-.715-.25-1.44-.477-2.169-.678l-.744 1.413H42.81a5744.92 5744.92 0 01-6.035 0h-8.786l-.69-1.31c-.2.057-.401.117-.601.179a5.86 5.86 0 00-.025.373 11.68 11.68 0 00.116 1.952c.095.693.235 1.358.392 1.894.024.085.05.165.073.24a5.001 5.001 0 11-3.26.74l-.013-.047a16.792 16.792 0 01-.495-2.377 16.866 16.866 0 01-.14-1.547c-2.06.88-3.98 1.943-5.591 3.118-3.205 2.338-4.42 4.524-4.42 6.029v5.716h53.333V60.95c0-1.505-1.216-3.691-4.42-6.029-1.308-.954-2.82-1.834-4.444-2.602a17.73 17.73 0 01-.414 2.68h.944c.632 0 1.209.357 1.491.922l1.667 3.334c.115.23.176.486.176.745v3.333c0 .92-.747 1.667-1.667 1.667h-3.333v-3.334h1.666v-1.273l-1.03-2.06h-4.606l-1.03 2.06v1.273h1.666V65H50c-.92 0-1.667-.746-1.667-1.667V60c0-.259.06-.514.176-.745l1.667-3.334c.282-.565.86-.921 1.49-.921h2.27l.063-.206a13.46 13.46 0 00.391-1.894 11.75 11.75 0 00.117-1.93zM28.333 60a1.68 1.68 0 01-1.666 1.691A1.68 1.68 0 0125 60c0-.957.77-1.691 1.667-1.691s1.666.734 1.666 1.69z" fill="#758AD6"/></svg>