<svg width="80" height="80" viewBox="0 0 80 80" fill="none" xmlns="http://www.w3.org/2000/svg"><path fill-rule="evenodd" clip-rule="evenodd" d="M26.827 18.509a6.286 6.286 0 00-8.888-.003l-1.174 1.172a6.588 6.588 0 00-6.487 1.703c-2.593 2.61-2.593 6.848 0 9.46l1.389 1.397V50h-5v3.333h3.417a5.833 5.833 0 108.165 0h43.502a5.833 5.833 0 108.165 0h3.417V50h-6.666v-5.188c2.87-.704 5-3.313 5-6.424 0-3.651-2.936-6.61-6.557-6.61H30.183a.51.51 0 01-.362-.152l-.61-.615.613-.613a6.284 6.284 0 00.003-8.888l-3-3.002zm.034 10.137l.607-.606a2.95 2.95 0 00.002-4.173l-3-3.002a2.952 2.952 0 00-4.175-.002l-.585.584 7.151 7.2zm41.472 9.742c0-1.836-1.469-3.277-3.223-3.277H30.183a3.844 3.844 0 01-2.727-1.136L17.279 23.73a3.256 3.256 0 00-4.636 0 3.39 3.39 0 000 4.761L25.73 41.666h39.38c1.754 0 3.223-1.441 3.223-3.278zm-44.541 6.057c.352.355.83.554 1.328.554h38.213v5H15V35.595l8.792 8.851zM16.667 57.5a2.5 2.5 0 11-5 0 2.5 2.5 0 015 0zM65.833 60a2.5 2.5 0 100-5 2.5 2.5 0 000 5z" fill="#758AD6"/></svg>