<svg width="80" height="80" viewBox="0 0 80 80" fill="none" xmlns="http://www.w3.org/2000/svg"><path fill-rule="evenodd" clip-rule="evenodd" d="M32.954 13.836l2.484-1.413 1.634 2.83a5.041 5.041 0 015.915 2.254l7.538 12.96a4.962 4.962 0 01-1.825 6.81l-1.414.81 1.129 2.181-4.457 2.27-1.015-1.961-1.112.637a5.038 5.038 0 01-6.852-1.836l-4.87-8.373c-4.27 2.456-7.216 5.2-8.796 8.337-1.33 2.64-1.767 5.71-1.032 9.395a16.592 16.592 0 018.052-2.07c5.45 0 10.288 2.615 13.33 6.66l20.143-11.353 1.655 2.894-20.07 11.31A16.602 16.602 0 0145 63.333c0 1.142-.115 2.257-.333 3.334h22a1.667 1.667 0 010 3.333H13.053a16.61 16.61 0 01-1.386-6.667c0-4.992 2.195-9.472 5.672-12.526-1.269-4.88-.908-9.182.997-12.964 1.975-3.923 5.51-7.078 10.098-9.72l-.992-1.706a4.963 4.963 0 01.421-5.614l-1.769-3.064 2.514-1.43-2.069-3.712 4.384-2.407 2.031 3.646zm14.679 18.29l-7.538-12.962a1.679 1.679 0 00-2.284-.612l-6.87 3.938a1.654 1.654 0 00-.607 2.27l7.537 12.96a1.679 1.679 0 002.284.612l6.87-3.937a1.654 1.654 0 00.608-2.27zm-6.386 34.54c.274-1.063.42-2.18.42-3.333 0-1.966-.426-3.833-1.19-5.513l-8.007 4.512-1.654-2.893 7.91-4.459A13.308 13.308 0 0028.334 50C20.97 50 15 55.97 15 63.333c0 1.154.146 2.27.42 3.334h25.828z" fill="#758AD6"/></svg>