<svg width="620" height="620" viewBox="0 0 620 620" fill="none" xmlns="http://www.w3.org/2000/svg"><path d="M155 129.167c14.268 0 25.833-11.566 25.833-25.834 0-14.267-11.565-25.833-25.833-25.833-9.562 0-17.91 5.195-22.377 12.917h-3.456c-21.401 0-38.75 17.349-38.75 38.75v116.25c-7.134 0-12.978 5.795-12.33 12.9a142.082 142.082 0 00102.746 123.797v31.219c0 16.875 10.786 31.229 25.839 36.547.55 51.247 42.264 92.62 93.64 92.62 51.72 0 93.646-41.926 93.646-93.646v-51.666c0-26.752 21.686-48.438 48.438-48.438 26.752 0 48.437 21.686 48.437 48.438v31.267C475.783 433.774 465 448.128 465 465c0 21.402 17.348 38.75 38.75 38.75S542.5 486.402 542.5 465c0-16.872-10.783-31.226-25.833-36.545v-31.267c0-41.019-33.253-74.271-74.271-74.271s-74.271 33.252-74.271 74.271v51.666c0 37.452-30.361 67.813-67.813 67.813-37.11 0-67.258-29.811-67.804-66.791 15.046-5.322 25.825-19.673 25.825-36.543v-31.219A142.083 142.083 0 00361.08 258.317c.649-7.105-5.196-12.9-12.33-12.9v-116.25c0-21.401-17.348-38.75-38.75-38.75h-3.456c-4.467-7.722-12.815-12.917-22.377-12.917-14.268 0-25.834 11.566-25.834 25.833 0 14.268 11.566 25.834 25.834 25.834 9.562 0 17.91-5.195 22.377-12.917H310c7.134 0 12.917 5.783 12.917 12.917v116.25h2.706c-7.134 0-12.825 5.811-13.811 12.876a93.126 93.126 0 01-158.075 52.972 93.121 93.121 0 01-26.381-52.972c-.987-7.065-6.677-12.876-13.811-12.876h2.705v-116.25c0-7.134 5.783-12.917 12.917-12.917h3.456c4.467 7.722 12.815 12.917 22.377 12.917z" fill="#F0F4F9"/></svg>