<svg width="100" height="47" viewBox="0 0 100 47" fill="none" xmlns="http://www.w3.org/2000/svg"><path d="M60.75 12.692l-2.188 2.557a12.1 12.1 0 00-2.75-1.807 7.527 7.527 0 00-2.656-.46 4.317 4.317 0 00-2.484.628c-.29.168-.53.408-.694.696a1.838 1.838 0 00-.244.943 1.393 1.393 0 00.469 1.133c.377.338.833.58 1.328.704.61.169 1.563.43 2.782.72a13.772 13.772 0 015.187 2.022 4.12 4.12 0 011.185 1.496c.272.582.4 1.218.377 1.857a5.405 5.405 0 01-.504 2.392 5.512 5.512 0 01-1.511 1.942 8.157 8.157 0 01-5.39 1.67 11.9 11.9 0 01-4.376-.751 14.172 14.172 0 01-3.984-2.65l2.234-2.557c.939.87 1.99 1.617 3.125 2.22a7.458 7.458 0 002.985.598 4.587 4.587 0 002.625-.674 2.18 2.18 0 00.736-.802c.172-.324.257-.686.248-1.05a1.507 1.507 0 00-.484-1.134 2.932 2.932 0 00-1.11-.674 16.04 16.04 0 00-2.265-.582l-.875-.245a12.359 12.359 0 01-5.094-2.052 4.331 4.331 0 01-1.071-1.55 4.254 4.254 0 01-.304-1.85c.005-.756.19-1.502.54-2.177a4.912 4.912 0 011.475-1.712 8.114 8.114 0 015.141-1.531 11.427 11.427 0 013.984.628 10.471 10.471 0 013.563 2.052zm17.688-2.45v3.063H72.78v15.313h-3.687V13.305h-5.656v-3.063h15zm15.328 18.407l-5.61-8.744-2.953 3.063v5.742h-3.719V10.334h3.688v8.239l7.812-8.239h4.532l-6.875 7.014 7.296 11.3h-4.171z" fill="#415397"/><path d="M8.125 14.913c0-.46.14-.598.61-.598h5.234c.39 0 .39 0 .39-.367V6.429a5.186 5.186 0 011.183-3.394 5.379 5.379 0 013.13-1.859c.076-.024.149-.054.219-.091a.877.877 0 00-.282 0A5.832 5.832 0 0014.547 2.6L9.859 7.195a107.87 107.87 0 00-4.687 4.87A14.34 14.34 0 002.532 16a4.127 4.127 0 00-.454 1.975c.081.86.44 1.67 1.025 2.315a4.144 4.144 0 002.225 1.269c.892.102 1.79.143 2.688.122.172 0 .172-.107.172-.23" fill="url(#paint0_linear_184_11363)"/><path d="M22.813 7.379c0 .138.171 4.41.171 5.819 0 .383 0 .383.375.383h7.813a5.442 5.442 0 013.378 1.212 5.25 5.25 0 011.84 3.03c.025.084.056.166.094.244h.094a2.267 2.267 0 000-.306 5.687 5.687 0 00-1.734-4.012l-4.688-4.594c-1.562-1.531-3.234-3.063-4.922-4.594a14.758 14.758 0 00-4.093-2.695 3.834 3.834 0 00-2.203-.316c-.75.115-1.448.45-2 .959-.891.766-1.829 3.614-1.125 4.778" fill="url(#paint1_linear_184_11363)"/><path d="M15.297 28.986c0-.138-.172-4.41-.172-5.819 0-.383 0-.383-.375-.383H6.937a5.443 5.443 0 01-3.407-1.181 5.251 5.251 0 01-1.874-3.03 1.51 1.51 0 00-.093-.245h.015a2.252 2.252 0 000 .306 5.687 5.687 0 001.734 4.012L8 27.241c1.563 1.53 3.234 3.062 4.922 4.594 1.224 1.108 2.635 2 4.172 2.633a3.828 3.828 0 002.203.316 3.796 3.796 0 002-.959c.89-.765 1.828-3.614 1.125-4.778" fill="url(#paint2_linear_184_11363)"/><path d="M29.922 21.437c0 .46-.14.597-.61.597h-5.234c-.39 0-.39 0-.39.367v7.52a5.186 5.186 0 01-1.183 3.393 5.378 5.378 0 01-3.13 1.859 1.338 1.338 0 00-.219.092v.076h.282a5.826 5.826 0 004.015-1.592l4.688-4.594c1.562-1.532 3.125-3.216 4.687-4.87a14.342 14.342 0 002.64-3.936c.314-.612.47-1.29.454-1.975a3.926 3.926 0 00-.965-2.252 4.062 4.062 0 00-2.129-1.27 19.67 19.67 0 00-2.703-.092c-.172 0-.172.107-.172.23" fill="url(#paint3_linear_184_11363)"/><path d="M5.389 40.915v1.587c0 .604-.029 1.336-.337 1.633a.885.885 0 01-.404.2l.062.392c.223 0 .445-.09.588-.179.542-.358.576-1.269.576-2.085v-1.14h1.272v3.36h.501v-3.768H5.39zm5.109 1.599H9.003v-1.19h1.58v-.409H8.507v3.767h2.162v-.408H9.003v-1.358h1.495v-.402zm.715-1.599v1.269c0 .922.628 1.134 1.135 1.134.337 0 .656-.083.924-.234h.011v1.598h.502v-3.767h-.502v1.789c-.2.123-.49.212-.758.212-.542 0-.816-.29-.816-.805v-1.196h-.496zm5.422 1.599h-1.494v-1.19h1.58v-.409h-2.076v3.767h2.161v-.408h-1.665v-1.358h1.494v-.402zm.817-1.599v3.756c.165.022.427.045.775.045.525 0 1.044-.117 1.358-.42.2-.195.32-.463.32-.815 0-.442-.2-.738-.491-.923-.269-.173-.628-.251-.993-.251-.125 0-.353.011-.473.028v-1.012h1.66v-.408h-2.156zm.496 1.794c.125-.01.28-.022.393-.022.274 0 .53.056.73.19a.701.701 0 01.314.615c0 .235-.08.419-.21.553-.19.196-.503.29-.81.29-.172 0-.303-.005-.417-.027v-1.599zm2.6-1.794v3.767h.497v-1.766h1.859v1.766h.502v-3.767h-.502v1.576h-1.86v-1.576h-.496zm5.278-.061c-1.027 0-1.785.782-1.785 1.978 0 1.14.712 1.912 1.728 1.912.98 0 1.785-.688 1.785-1.984 0-1.118-.679-1.906-1.728-1.906zm-.023.396c.827 0 1.226.783 1.226 1.532 0 .855-.445 1.565-1.232 1.565-.781 0-1.226-.721-1.226-1.526 0-.827.41-1.57 1.232-1.57zm2.135 1.739v.363h1.409v-.363h-1.409zm2.49-2.074v.956c0 .648-.05 1.151-.182 1.587-.091.296-.234.57-.376.828l-.291.01.034 1.292h.388l.034-.906h2.424l.034.906h.388l.034-1.291-.336-.011v-3.371h-2.15zm.463.402h1.192v2.963h-1.7a3.64 3.64 0 00.314-.716c.137-.424.194-.933.194-1.537v-.71zm2.65-.402v3.767h.531l1.204-1.872c.262-.42.524-.855.713-1.269l.017.006c-.04.475-.046.922-.046 1.531v1.604h.468v-3.767h-.496l-1.244 1.94c-.28.447-.519.855-.713 1.246l-.011-.006a22.9 22.9 0 00.046-1.593v-1.587h-.468zm5.74 2.582l.41 1.185h.53l-1.311-3.767h-.6l-1.305 3.767h.513l.4-1.185h1.362zm-1.261-.38l.376-1.09c.075-.229.137-.458.194-.682h.012c.057.218.114.442.2.688l.376 1.084H38.02zm2.768-2.202v3.767h.496v-3.359h1.546v-.408h-2.042zm2.467 0v3.767h.496v-1.766h1.86v1.766h.501v-3.767h-.502v1.576h-1.859v-1.576h-.496zm5.277-.061c-1.026 0-1.785.782-1.785 1.978 0 1.14.713 1.912 1.728 1.912.981 0 1.785-.688 1.785-1.984 0-1.118-.678-1.906-1.728-1.906zm-.022.396c.827 0 1.226.783 1.226 1.532 0 .855-.445 1.565-1.232 1.565-.782 0-1.226-.721-1.226-1.526 0-.827.41-1.57 1.232-1.57zm4.98 2.924c-.199.095-.507.156-.809.156-.935 0-1.477-.592-1.477-1.515 0-.989.599-1.553 1.5-1.553.32 0 .587.067.776.156l.12-.397c-.132-.067-.434-.167-.913-.167-1.192 0-2.008.799-2.008 1.978 0 1.235.816 1.906 1.9 1.906.467 0 .832-.09 1.015-.179l-.103-.385zm1.656.508h.502V41.33h1.175v-.414h-2.846v.414h1.17v3.353zm2.105-3.767v3.767h.53l1.204-1.872c.262-.42.525-.855.713-1.269l.017.006c-.04.475-.046.922-.046 1.531v1.604h.468v-3.767h-.496l-1.244 1.94c-.279.447-.519.855-.712 1.246l-.012-.006c.034-.503.046-.995.046-1.593v-1.587h-.468zm3.692 0v1.269c0 .922.627 1.134 1.135 1.134.336 0 .656-.083.924-.234h.011v1.598h.502v-3.767h-.502v1.789c-.2.123-.49.212-.758.212-.542 0-.816-.29-.816-.805v-1.196h-.496zm5.422 1.599H64.87v-1.19h1.58v-.409h-2.077v3.767h2.162v-.408H64.87v-1.358h1.494v-.402zm3.4 1.66c-.2.095-.508.156-.81.156-.935 0-1.477-.592-1.477-1.515 0-.989.599-1.553 1.5-1.553.32 0 .587.067.776.156l.12-.397c-.132-.067-.434-.167-.913-.167-1.192 0-2.008.799-2.008 1.978 0 1.235.816 1.906 1.9 1.906.467 0 .832-.09 1.015-.179l-.103-.385zm.725-3.259v3.767h.49v-1.727h.16c.65 0 .895.341 1.072.839.103.296.211.631.348.888h.536c-.171-.335-.28-.682-.422-1.067-.2-.509-.445-.89-1.078-.973l1.454-1.727h-.598l-1.318 1.671h-.154v-1.671h-.49zm3.09 0v3.767h.531l1.203-1.872c.263-.42.525-.855.713-1.269l.017.006c-.04.475-.045.922-.045 1.531v1.604h.468v-3.767h-.497l-1.243 1.94c-.28.447-.519.855-.713 1.246l-.011-.006a22.9 22.9 0 00.045-1.593v-1.587h-.467zm3.755 0v3.767h.53l1.203-1.872c.263-.42.525-.855.713-1.269l.017.006c-.04.475-.045.922-.045 1.531v1.604h.467v-3.767h-.496l-1.243 1.94c-.28.447-.52.855-.713 1.246l-.011-.006a22.9 22.9 0 00.045-1.593v-1.587h-.468zm.713-.788c.028.369.25.598.718.598.485 0 .713-.23.741-.598h-.382c-.022.184-.085.346-.347.346-.269 0-.326-.173-.349-.346h-.382zm4.249.788v3.767h2.635l.034.906h.394l.034-1.291-.337-.011v-3.371h-.502v3.36h-1.762v-3.36h-.496zm5.71 1.599h-1.494v-1.19h1.58v-.409h-2.076v3.767h2.162v-.408h-1.666v-1.358h1.495v-.402zm.817-1.599v3.767h.496v-1.766h1.86v1.766h.502v-3.767h-.502v1.576h-1.86v-1.576h-.496zm4.45 3.767h.503V41.33h1.174v-.414h-2.845v.414h1.169v3.353zm2.105 0h.497v-1.509c.114.028.25.034.399.034.485 0 .912-.14 1.175-.414.194-.196.296-.464.296-.805 0-.335-.125-.609-.336-.788-.228-.201-.587-.313-1.078-.313-.4 0-.713.034-.953.073v3.722zm.497-3.37c.085-.023.25-.04.467-.04.548 0 .907.241.907.739 0 .52-.365.804-.964.804a1.64 1.64 0 01-.41-.039v-1.464z" fill="#415397"/><defs><linearGradient id="paint0_linear_184_11363" x1="10.453" y1=".977" x2="10.453" y2="21.62" gradientUnits="userSpaceOnUse"><stop stop-color="#3AB5B0"/><stop offset=".24" stop-color="#3D99BE"/><stop offset=".78" stop-color="#56317A"/></linearGradient><linearGradient id="paint1_linear_184_11363" x1="15.562" y1="9.768" x2="36.578" y2="9.768" gradientUnits="userSpaceOnUse"><stop offset=".22" stop-color="#56317A"/><stop offset=".76" stop-color="#3D99BE"/><stop offset="1" stop-color="#3AB5B0"/></linearGradient><linearGradient id="paint2_linear_184_11363" x1="12.016" y1="34.836" x2="12.016" y2="18.328" gradientUnits="userSpaceOnUse"><stop offset=".22" stop-color="#56317A"/><stop offset=".76" stop-color="#3D99BE"/><stop offset="1" stop-color="#3AB5B0"/></linearGradient><linearGradient id="paint3_linear_184_11363" x1="492.816" y1="96.091" x2="673.728" y2="96.091" gradientUnits="userSpaceOnUse"><stop stop-color="#3AB5B0"/><stop offset=".24" stop-color="#3D99BE"/><stop offset=".78" stop-color="#56317A"/></linearGradient></defs></svg>