<svg width="100" height="46" viewBox="0 0 100 46" fill="none" xmlns="http://www.w3.org/2000/svg"><path d="M60.75 11.73l-2.188 2.56a12.1 12.1 0 00-2.75-1.81 7.516 7.516 0 00-2.656-.46 4.313 4.313 0 00-2.484.63c-.29.167-.53.407-.694.695a1.843 1.843 0 00-.244.945 1.395 1.395 0 00.469 1.135c.377.338.833.58 1.328.705.61.169 1.563.43 2.782.72a13.76 13.76 0 015.187 2.025 4.14 4.14 0 011.185 1.497c.272.583.4 1.22.377 1.86a5.418 5.418 0 01-.504 2.396 5.518 5.518 0 01-1.511 1.944 8.15 8.15 0 01-5.39 1.671 11.887 11.887 0 01-4.376-.751 14.17 14.17 0 01-3.984-2.653l2.234-2.56c.939.87 1.99 1.618 3.125 2.223a7.449 7.449 0 002.985.598 4.582 4.582 0 002.625-.675c.31-.202.564-.478.736-.803a2.13 2.13 0 00.248-1.052 1.51 1.51 0 00-.484-1.135 2.93 2.93 0 00-1.11-.674 16.043 16.043 0 00-2.265-.583l-.875-.245a12.347 12.347 0 01-5.094-2.055 4.337 4.337 0 01-1.071-1.553 4.265 4.265 0 01-.304-1.851c.005-.758.19-1.505.54-2.18a4.916 4.916 0 011.475-1.715 8.106 8.106 0 015.141-1.533 11.413 11.413 0 013.984.629 10.468 10.468 0 013.563 2.054zm17.688-2.454v3.067H72.78v15.333h-3.687V12.343h-5.656V9.276h15zm15.328 18.431l-5.61-8.755-2.953 3.066v5.75h-3.719v-18.4h3.688v8.25l7.812-8.25h4.532l-6.875 7.023 7.296 11.316h-4.171zM8.125 13.953c0-.46.14-.598.61-.598h5.234c.39 0 .39 0 .39-.368V5.458a5.197 5.197 0 011.183-3.398A5.377 5.377 0 0118.672.2c.075-.025.149-.056.219-.093a.875.875 0 00-.282 0 5.828 5.828 0 00-4.062 1.518l-4.688 4.6a107.902 107.902 0 00-4.687 4.876 14.361 14.361 0 00-2.64 3.94 4.137 4.137 0 00-.454 1.979c.081.86.44 1.672 1.025 2.317a4.143 4.143 0 002.225 1.27 19.6 19.6 0 002.688.123c.172 0 .172-.107.172-.23" fill="#fff"/><path d="M22.813 6.409c0 .138.171 4.416.171 5.827 0 .383 0 .383.375.383h7.813a5.437 5.437 0 013.378 1.214c.95.774 1.6 1.845 1.84 3.033.025.084.056.166.094.245h.094a2.273 2.273 0 000-.306 5.698 5.698 0 00-1.734-4.018l-4.688-4.6c-1.562-1.533-3.234-3.066-4.922-4.6A14.757 14.757 0 0021.141.89a3.83 3.83 0 00-2.203-.316c-.75.114-1.448.45-2 .96-.891.766-1.829 3.618-1.125 4.784m-.516 21.727c0-.138-.172-4.416-.172-5.827 0-.383 0-.383-.375-.383H6.937a5.439 5.439 0 01-3.407-1.183 5.259 5.259 0 01-1.874-3.034 1.51 1.51 0 00-.093-.245h.015a2.258 2.258 0 000 .307 5.698 5.698 0 001.734 4.017L8 26.297c1.563 1.533 3.234 3.067 4.922 4.6a14.38 14.38 0 004.172 2.637 3.83 3.83 0 002.203.317 3.794 3.794 0 002-.96c.89-.767 1.828-3.62 1.125-4.785" fill="#fff"/><path d="M29.922 20.485c0 .46-.14.598-.61.598h-5.234c-.39 0-.39 0-.39.368v7.53a5.197 5.197 0 01-1.183 3.397 5.376 5.376 0 01-3.13 1.861 1.338 1.338 0 00-.219.092v.077h.282a5.816 5.816 0 004.015-1.595l4.688-4.6c1.562-1.533 3.125-3.22 4.687-4.876a14.36 14.36 0 002.64-3.94 4.137 4.137 0 00.454-1.978 3.934 3.934 0 00-.965-2.255 4.061 4.061 0 00-2.129-1.272 19.67 19.67 0 00-2.703-.092c-.172 0-.172.107-.172.23M5.389 39.99v1.589c0 .604-.029 1.337-.337 1.634a.884.884 0 01-.404.201l.062.392c.223 0 .445-.09.588-.179.542-.358.576-1.27.576-2.087v-1.142h1.272v3.363h.501V39.99H5.39zm5.109 1.6H9.003v-1.192h1.58v-.409H8.507v3.772h2.162v-.408H9.003v-1.36h1.495v-.403zm.715-1.6v1.27c0 .923.628 1.136 1.135 1.136.337 0 .656-.084.924-.235h.011v1.6h.502V39.99h-.502v1.791c-.2.123-.49.213-.758.213-.542 0-.816-.291-.816-.806V39.99h-.496zm5.422 1.6h-1.494v-1.192h1.58v-.409h-2.076v3.772h2.161v-.408h-1.665v-1.36h1.494v-.403zm.817-1.6v3.76c.165.023.427.045.775.045.525 0 1.044-.117 1.358-.42.2-.196.32-.464.32-.817 0-.442-.2-.739-.491-.923-.269-.174-.628-.252-.993-.252-.125 0-.353.011-.473.028v-1.013h1.66v-.409h-2.156zm.496 1.796c.125-.011.28-.023.393-.023.274 0 .53.056.73.19a.702.702 0 01.314.616.77.77 0 01-.21.554c-.19.196-.503.291-.81.291-.172 0-.303-.005-.417-.028v-1.6zm2.6-1.797v3.772h.497v-1.768h1.859v1.768h.502V39.99h-.502v1.579h-1.86V39.99h-.496zm5.278-.061c-1.027 0-1.785.783-1.785 1.981 0 1.142.712 1.914 1.728 1.914.98 0 1.785-.688 1.785-1.987 0-1.12-.679-1.908-1.728-1.908zm-.023.397c.827 0 1.226.784 1.226 1.533 0 .857-.445 1.568-1.232 1.568-.781 0-1.226-.722-1.226-1.528 0-.829.41-1.573 1.232-1.573zm2.135 1.74v.364h1.409v-.363h-1.409zm2.49-2.076v.957c0 .65-.05 1.153-.182 1.59a4.39 4.39 0 01-.376.828l-.291.011.034 1.293h.388l.034-.907h2.424l.034.907h.388l.034-1.293-.336-.01v-3.376h-2.15zm.463.403h1.192v2.966h-1.7a3.64 3.64 0 00.314-.716c.137-.425.194-.934.194-1.539v-.71zm2.65-.403v3.772h.531l1.204-1.874c.262-.42.524-.857.713-1.27l.017.005c-.04.475-.046.923-.046 1.533v1.606h.468V39.99h-.496l-1.244 1.942c-.28.448-.519.857-.713 1.248l-.011-.005c.034-.504.046-.996.046-1.595v-1.59h-.468zm5.74 2.586l.41 1.186h.53L38.91 39.99h-.6l-1.305 3.772h.513l.4-1.186h1.362zm-1.261-.38l.376-1.092c.075-.23.137-.459.194-.683h.012c.057.218.114.442.2.689l.376 1.085H38.02zm2.768-2.206v3.772h.496v-3.363h1.546v-.409h-2.042zm2.467 0v3.772h.496v-1.768h1.86v1.768h.501V39.99h-.502v1.579h-1.859V39.99h-.496zm5.277-.061c-1.026 0-1.785.783-1.785 1.981 0 1.142.713 1.914 1.728 1.914.981 0 1.785-.688 1.785-1.987 0-1.12-.678-1.908-1.728-1.908zm-.022.397c.827 0 1.226.784 1.226 1.533 0 .857-.445 1.568-1.232 1.568-.782 0-1.226-.722-1.226-1.528 0-.829.41-1.573 1.232-1.573zm4.98 2.927c-.199.095-.507.157-.809.157-.935 0-1.477-.593-1.477-1.517 0-.99.599-1.556 1.5-1.556.32 0 .587.067.776.157l.12-.397c-.132-.067-.434-.168-.913-.168-1.192 0-2.008.8-2.008 1.981 0 1.237.816 1.908 1.9 1.908.467 0 .832-.09 1.015-.179l-.103-.386zm1.656.51h.502v-3.359h1.175v-.414h-2.846v.414h1.17v3.358zm2.105-3.773v3.772h.53l1.204-1.874c.262-.42.525-.857.713-1.27l.017.005c-.04.475-.046.923-.046 1.533v1.606h.468V39.99h-.496l-1.244 1.942c-.279.448-.519.857-.712 1.248l-.012-.005c.034-.504.046-.996.046-1.595v-1.59h-.468zm3.692 0v1.27c0 .924.627 1.137 1.135 1.137.336 0 .656-.084.924-.235h.011v1.6h.502V39.99h-.502v1.791c-.2.123-.49.213-.758.213-.542 0-.816-.291-.816-.806V39.99h-.496zm5.422 1.6H64.87v-1.191h1.58v-.409h-2.077v3.772h2.162v-.408H64.87v-1.36h1.494v-.403zm3.4 1.663c-.2.095-.508.157-.81.157-.935 0-1.477-.593-1.477-1.517 0-.99.599-1.556 1.5-1.556.32 0 .587.067.776.157l.12-.397c-.132-.067-.434-.168-.913-.168-1.192 0-2.008.8-2.008 1.981 0 1.237.816 1.908 1.9 1.908.467 0 .832-.09 1.015-.179l-.103-.386zm.725-3.263v3.772h.49v-1.729h.16c.65 0 .895.341 1.072.84.103.296.211.632.348.89h.536c-.171-.336-.28-.683-.422-1.07-.2-.509-.445-.89-1.078-.973l1.454-1.73h-.598l-1.318 1.674h-.154v-1.674h-.49zm3.09 0v3.772h.531l1.203-1.874c.263-.42.525-.857.713-1.27l.017.005c-.04.475-.045.923-.045 1.533v1.606h.468V39.99h-.497l-1.243 1.942c-.28.448-.519.857-.713 1.248l-.011-.005c.034-.504.045-.996.045-1.595v-1.59h-.467zm3.755 0v3.772h.53l1.203-1.874c.263-.42.525-.857.713-1.27l.017.005c-.04.475-.045.923-.045 1.533v1.606h.467V39.99h-.496l-1.243 1.942c-.28.448-.52.857-.713 1.248l-.011-.005c.034-.504.045-.996.045-1.595v-1.59h-.468zm.713-.789c.028.37.25.599.718.599.485 0 .713-.23.741-.599h-.382c-.022.185-.085.347-.347.347-.269 0-.326-.173-.349-.347h-.382zm4.249.79v3.771h2.635l.034.907h.394l.034-1.293-.337-.01v-3.376h-.502v3.364h-1.762v-3.364h-.496zm5.71 1.6h-1.494v-1.192h1.58v-.409h-2.076v3.772h2.162v-.408h-1.666v-1.36h1.495v-.403zm.817-1.6v3.771h.496v-1.768h1.86v1.768h.502V39.99h-.502v1.579h-1.86V39.99h-.496zm4.45 3.771h.503v-3.358h1.174v-.414h-2.845v.414h1.169v3.358zm2.105 0h.497v-1.51c.114.027.25.033.399.033.485 0 .912-.14 1.175-.414.194-.196.296-.465.296-.806 0-.336-.125-.61-.336-.79-.228-.2-.587-.313-1.078-.313-.4 0-.713.034-.953.073v3.727zm.497-3.374c.085-.023.25-.04.467-.04.548 0 .907.241.907.74 0 .52-.365.805-.964.805a1.69 1.69 0 01-.41-.039v-1.466z" fill="#fff"/></svg>